<svg xmlns="http://www.w3.org/2000/svg" width="325" height="198" preserveAspectRatio="none" style="width:325px;height:198px;background:#fff" viewBox="0 0 325 198"><g><rect width="90.811" height="50.266" x="7" y="7" fill="#f1f1f1" rx="12.5" ry="12.5" style="stroke:#181818;stroke-width:.5"/><path d="M7 33.297h90.811" style="stroke:#181818;stroke-width:.5"/><text x="35.36" y="24.995" font-family="sans-serif" font-size="14" textLength="34.091">Base</text><text x="12" y="49.435" font-family="sans-serif" font-size="12" textLength="70.811">Not created</text></g><g><rect width="77.996" height="50.266" x="169.41" y="7" fill="#f1f1f1" rx="12.5" ry="12.5" style="stroke:#181818;stroke-width:.5"/><path d="M169.41 33.297h77.996" style="stroke:#181818;stroke-width:.5"/><text x="179.41" y="24.995" font-family="sans-serif" font-size="14" textLength="57.996">Running</text><text x="174.41" y="49.435" font-family="sans-serif" font-size="12" textLength="47.754">Created</text></g><g><rect width="78.215" height="50.266" x="131.3" y="134.26" fill="#f1f1f1" rx="12.5" ry="12.5" style="stroke:#181818;stroke-width:.5"/><path d="M131.3 160.557h78.215" style="stroke:#181818;stroke-width:.5"/><text x="141.3" y="152.255" font-family="sans-serif" font-size="14" textLength="58.215">Stopped</text><text x="136.3" y="176.696" font-family="sans-serif" font-size="12" textLength="47.754">Created</text></g><g><path fill="none" d="M98.06 48.91c14.2 3.42 29.95 5.39 44.55 3.22 8.74-1.3 12.156-1.852 20.796-4.352" style="stroke:#181818;stroke-width:1"/><path fill="#181818" d="m169.17 46.11-9.757-1.341 4.954 2.731-2.731 4.954z" style="stroke:#181818;stroke-width:1"/><text x="125.61" y="48.197" font-family="sans-serif" font-size="13" textLength="16.491">up</text></g><g><path fill="none" d="M169.16 32.13h-65.21" style="stroke:#181818;stroke-width:1"/><path fill="#181818" d="m97.95 32.13 9 4-4-4 4-4z" style="stroke:#181818;stroke-width:1"/><text x="116.11" y="25.197" font-family="sans-serif" font-size="13" textLength="35.077">down</text></g><g><path fill="none" d="M172.2 57.73c-9.17 8.21-17.82 18.21-22.79 29.53-6.59 14.97-4.107 27.21 2.723 41.17" style="stroke:#181818;stroke-width:1"/><path fill="#181818" d="m154.77 133.82-.362-9.842-1.835 5.351-5.351-1.835z" style="stroke:#181818;stroke-width:1"/><text x="150.41" y="100.327" font-family="sans-serif" font-size="13" textLength="28.076">stop</text></g><g><path fill="none" d="M177.8 134.01c6.69-22.05 14.747-48.619 21.447-70.689" style="stroke:#181818;stroke-width:1"/><path fill="#181818" d="m200.99 57.58-6.442 7.45 4.99-2.666 2.665 4.99z" style="stroke:#181818;stroke-width:1"/><text x="193.41" y="100.327" font-family="sans-serif" font-size="13" textLength="30.278">start</text></g><g><path fill="none" d="M208.74 133.85c9.51-8.16 18.46-18.14 23.67-29.59 6.84-15.07 3.875-27.43-3.765-41.36" style="stroke:#181818;stroke-width:1"/><path fill="#181818" d="m225.76 57.64.821 9.815 1.583-5.431 5.431 1.584z" style="stroke:#181818;stroke-width:1"/><text x="237.41" y="100.327" font-family="sans-serif" font-size="13" textLength="16.491">up</text></g><g><path fill="none" d="M247.62 20.46c18.52-1.35 34.78 2.54 34.78 11.67 0 9.14-10.276 13.47-28.796 12.11" style="stroke:#181818;stroke-width:1"/><path fill="#181818" d="m247.62 43.8 8.683 4.648-3.696-4.282 4.282-3.696z" style="stroke:#181818;stroke-width:1"/><text x="288.4" y="36.697" font-family="sans-serif" font-size="13" textLength="16.491">up</text></g><g><path fill="none" d="M134.97 133.87c-11.35-8.68-23.55-18.95-33.56-29.61-13.36-14.2-22.6-27.232-31.6-41.632" style="stroke:#181818;stroke-width:1"/><path fill="#181818" d="m66.63 57.54 1.378 9.752 1.272-5.512 5.512 1.272z" style="stroke:#181818;stroke-width:1"/><text x="102.41" y="100.327" font-family="sans-serif" font-size="13" textLength="35.077">down</text></g></svg>